<?xml version="1.0" standalone="no"?>
<!DOCTYPE svg PUBLIC "-//W3C//DTD SVG 20010904//EN"
 "http://www.w3.org/TR/2001/REC-SVG-20010904/DTD/svg10.dtd">
<svg version="1.0" xmlns="http://www.w3.org/2000/svg"
 width="348.000000pt" height="217.000000pt" viewBox="0 0 348.000000 217.000000"
 preserveAspectRatio="xMidYMid meet">

<g transform="translate(0.000000,217.000000) scale(0.100000,-0.100000)"
fill="#000000" stroke="none">
<path d="M690 2146 c-168 -36 -291 -112 -402 -248 -81 -99 -127 -222 -143
-378 -3 -36 -36 -267 -72 -515 -35 -247 -67 -482 -70 -520 -13 -178 69 -336
216 -413 127 -68 276 -79 386 -28 99 45 98 44 403 446 234 308 258 335 309
349 52 15 794 15 846 0 52 -14 75 -40 328 -374 120 -159 237 -309 258 -332
127 -137 309 -159 506 -63 149 72 237 238 222 420 -3 36 -32 249 -65 475 -33
226 -68 473 -77 550 -25 206 -76 322 -194 443 -105 106 -219 163 -380 190
-230 38 -450 -47 -619 -240 l-32 -38 -373 0 -372 0 -40 51 c-137 174 -413 272
-635 225z m201 -236 c70 -13 183 -69 236 -117 160 -146 201 -399 95 -583 -35
-61 -115 -144 -169 -175 -152 -89 -346 -89 -498 0 -58 34 -148 134 -179 198
-112 238 -15 522 216 632 110 52 193 65 299 45z m1870 0 c30 -6 86 -25 125
-44 233 -110 330 -395 218 -633 -31 -64 -121 -164 -179 -198 -146 -86 -331
-89 -486 -10 -51 27 -146 122 -178 179 -89 156 -81 354 20 505 50 75 93 112
184 157 103 51 190 64 296 44z m-1120 -429 c3 0 6 -21 6 -46 l0 -45 -63 0 -64
0 0 48 0 48 58 -2 c31 -1 60 -2 63 -3z m319 -41 l0 -50 -65 0 -64 0 1 45 1 44
61 4 c33 2 62 4 64 5 1 1 2 -20 2 -48z"/>
<path d="M733 1750 c-45 -27 -65 -62 -66 -119 l-2 -49 -59 -4 c-53 -4 -63 -8
-92 -41 -30 -32 -34 -44 -34 -89 0 -93 55 -148 147 -148 l38 0 1 -50 c5 -157
213 -192 269 -45 10 24 15 56 13 70 -5 23 -3 25 34 25 89 0 148 55 148 138 0
83 -56 142 -136 142 l-41 0 -6 50 c-10 86 -66 140 -144 140 -21 0 -52 -9 -70
-20z"/>
<path d="M2599 1849 c-49 -29 -71 -70 -71 -131 0 -126 150 -192 245 -108 58
50 69 144 24 201 -44 57 -135 74 -198 38z m141 -48 c49 -35 51 -111 5 -157
-28 -28 -97 -33 -131 -9 -47 32 -56 122 -16 158 43 39 95 42 142 8z"/>
<path d="M2325 1575 c-47 -24 -80 -80 -80 -136 0 -54 22 -90 75 -126 94 -65
224 14 222 135 -1 104 -121 174 -217 127z m115 -40 c97 -50 65 -194 -43 -195
-49 0 -73 13 -92 50 -30 57 -16 108 38 140 39 24 59 25 97 5z"/>
<path d="M2895 1579 c-72 -42 -105 -112 -84 -177 41 -129 190 -151 273 -40 41
56 20 156 -42 202 -30 23 -118 32 -147 15z m116 -52 c86 -58 48 -187 -55 -187
-59 1 -106 45 -106 100 0 36 30 81 63 95 44 20 59 18 98 -8z"/>
<path d="M2615 1300 c-34 -14 -76 -66 -85 -104 -32 -142 134 -242 243 -146 43
37 62 96 48 147 -12 43 -51 90 -88 104 -29 11 -91 11 -118 -1z m123 -50 c9 0
42 -69 42 -88 0 -103 -149 -141 -196 -51 -42 83 31 172 121 147 16 -4 31 -8
33 -8z"/>
</g>
</svg>
